<mxfile host="app.diagrams.net" agent="Mozilla/5.0 (Windows NT 10.0; Win64; x64) AppleWebKit/537.36 (KHTML, like Gecko) Chrome/134.0.0.0 Safari/537.36" version="26.2.4">
  <diagram name="Page-1" id="j_4QjJUkUxYJq50RTD--">
    <mxGraphModel dx="2040" dy="1121" grid="1" gridSize="10" guides="1" tooltips="1" connect="1" arrows="1" fold="1" page="1" pageScale="1" pageWidth="827" pageHeight="1169" math="0" shadow="0">
      <root>
        <mxCell id="0" />
        <mxCell id="1" parent="0" />
        <mxCell id="ZZ10QkGj8NgPV41s8bEq-2" value="Start" style="whiteSpace=wrap;strokeWidth=2;" vertex="1" parent="1">
          <mxGeometry x="401" y="20" width="95" height="54" as="geometry" />
        </mxCell>
        <mxCell id="ZZ10QkGj8NgPV41s8bEq-3" value="Data Input" style="rhombus;strokeWidth=2;whiteSpace=wrap;" vertex="1" parent="1">
          <mxGeometry x="384" y="124" width="129" height="129" as="geometry" />
        </mxCell>
        <mxCell id="ZZ10QkGj8NgPV41s8bEq-4" value="Student Info" style="whiteSpace=wrap;strokeWidth=2;" vertex="1" parent="1">
          <mxGeometry x="171" y="303" width="148" height="54" as="geometry" />
        </mxCell>
        <mxCell id="ZZ10QkGj8NgPV41s8bEq-5" value="Subject Marks" style="whiteSpace=wrap;strokeWidth=2;" vertex="1" parent="1">
          <mxGeometry x="369" y="303" width="160" height="54" as="geometry" />
        </mxCell>
        <mxCell id="ZZ10QkGj8NgPV41s8bEq-6" value="Validate Data" style="whiteSpace=wrap;strokeWidth=2;" vertex="1" parent="1">
          <mxGeometry x="268" y="407" width="156" height="54" as="geometry" />
        </mxCell>
        <mxCell id="ZZ10QkGj8NgPV41s8bEq-7" value="Store Data" style="whiteSpace=wrap;strokeWidth=2;" vertex="1" parent="1">
          <mxGeometry x="246" y="534" width="135" height="54" as="geometry" />
        </mxCell>
        <mxCell id="ZZ10QkGj8NgPV41s8bEq-8" value="Error Msg" style="whiteSpace=wrap;strokeWidth=2;" vertex="1" parent="1">
          <mxGeometry x="477" y="534" width="127" height="54" as="geometry" />
        </mxCell>
        <mxCell id="ZZ10QkGj8NgPV41s8bEq-9" value="Calc Results?" style="rhombus;strokeWidth=2;whiteSpace=wrap;" vertex="1" parent="1">
          <mxGeometry x="186" y="638" width="145" height="145" as="geometry" />
        </mxCell>
        <mxCell id="ZZ10QkGj8NgPV41s8bEq-10" value="Calc Total &amp; %" style="whiteSpace=wrap;strokeWidth=2;" vertex="1" parent="1">
          <mxGeometry x="120" y="856" width="161" height="54" as="geometry" />
        </mxCell>
        <mxCell id="ZZ10QkGj8NgPV41s8bEq-11" value="Calc Grade" style="whiteSpace=wrap;strokeWidth=2;" vertex="1" parent="1">
          <mxGeometry x="131" y="960" width="139" height="54" as="geometry" />
        </mxCell>
        <mxCell id="ZZ10QkGj8NgPV41s8bEq-12" value="Report Card" style="whiteSpace=wrap;strokeWidth=2;" vertex="1" parent="1">
          <mxGeometry x="128" y="1064" width="145" height="54" as="geometry" />
        </mxCell>
        <mxCell id="ZZ10QkGj8NgPV41s8bEq-13" value="Store Report" style="whiteSpace=wrap;strokeWidth=2;" vertex="1" parent="1">
          <mxGeometry x="184" y="1168" width="150" height="54" as="geometry" />
        </mxCell>
        <mxCell id="ZZ10QkGj8NgPV41s8bEq-14" value="Class/Sub Reports?" style="rhombus;strokeWidth=2;whiteSpace=wrap;" vertex="1" parent="1">
          <mxGeometry x="219" y="1272" width="188" height="188" as="geometry" />
        </mxCell>
        <mxCell id="ZZ10QkGj8NgPV41s8bEq-15" value="Gen Reports" style="whiteSpace=wrap;strokeWidth=2;" vertex="1" parent="1">
          <mxGeometry x="180" y="1533" width="147" height="54" as="geometry" />
        </mxCell>
        <mxCell id="ZZ10QkGj8NgPV41s8bEq-16" value="Display/Export" style="whiteSpace=wrap;strokeWidth=2;" vertex="1" parent="1">
          <mxGeometry x="231" y="1637" width="166" height="54" as="geometry" />
        </mxCell>
        <mxCell id="ZZ10QkGj8NgPV41s8bEq-17" value="End" style="whiteSpace=wrap;strokeWidth=2;" vertex="1" parent="1">
          <mxGeometry x="270" y="1741" width="86" height="54" as="geometry" />
        </mxCell>
        <mxCell id="ZZ10QkGj8NgPV41s8bEq-18" value="" style="curved=1;startArrow=none;endArrow=block;exitX=0.5;exitY=1;entryX=0.5;entryY=0;rounded=0;" edge="1" parent="1" source="ZZ10QkGj8NgPV41s8bEq-2" target="ZZ10QkGj8NgPV41s8bEq-3">
          <mxGeometry relative="1" as="geometry">
            <Array as="points" />
          </mxGeometry>
        </mxCell>
        <mxCell id="ZZ10QkGj8NgPV41s8bEq-19" value="" style="curved=1;startArrow=none;endArrow=block;exitX=0;exitY=0.72;entryX=0.5;entryY=0;rounded=0;" edge="1" parent="1" source="ZZ10QkGj8NgPV41s8bEq-3" target="ZZ10QkGj8NgPV41s8bEq-4">
          <mxGeometry relative="1" as="geometry">
            <Array as="points">
              <mxPoint x="245" y="278" />
            </Array>
          </mxGeometry>
        </mxCell>
        <mxCell id="ZZ10QkGj8NgPV41s8bEq-20" value="" style="curved=1;startArrow=none;endArrow=block;exitX=0.5;exitY=1;entryX=0.5;entryY=0;rounded=0;" edge="1" parent="1" source="ZZ10QkGj8NgPV41s8bEq-3" target="ZZ10QkGj8NgPV41s8bEq-5">
          <mxGeometry relative="1" as="geometry">
            <Array as="points" />
          </mxGeometry>
        </mxCell>
        <mxCell id="ZZ10QkGj8NgPV41s8bEq-21" value="" style="curved=1;startArrow=none;endArrow=block;exitX=0.5;exitY=1;entryX=0.16;entryY=0;rounded=0;" edge="1" parent="1" source="ZZ10QkGj8NgPV41s8bEq-4" target="ZZ10QkGj8NgPV41s8bEq-6">
          <mxGeometry relative="1" as="geometry">
            <Array as="points">
              <mxPoint x="245" y="382" />
            </Array>
          </mxGeometry>
        </mxCell>
        <mxCell id="ZZ10QkGj8NgPV41s8bEq-22" value="" style="curved=1;startArrow=none;endArrow=block;exitX=0.5;exitY=1;entryX=0.84;entryY=0;rounded=0;" edge="1" parent="1" source="ZZ10QkGj8NgPV41s8bEq-5" target="ZZ10QkGj8NgPV41s8bEq-6">
          <mxGeometry relative="1" as="geometry">
            <Array as="points">
              <mxPoint x="448" y="382" />
            </Array>
          </mxGeometry>
        </mxCell>
        <mxCell id="ZZ10QkGj8NgPV41s8bEq-23" value="Valid" style="curved=1;startArrow=none;endArrow=block;exitX=0.41;exitY=1;entryX=0.5;entryY=0;rounded=0;" edge="1" parent="1" source="ZZ10QkGj8NgPV41s8bEq-6" target="ZZ10QkGj8NgPV41s8bEq-7">
          <mxGeometry relative="1" as="geometry">
            <Array as="points">
              <mxPoint x="313" y="497" />
            </Array>
          </mxGeometry>
        </mxCell>
        <mxCell id="ZZ10QkGj8NgPV41s8bEq-24" value="Invalid" style="curved=1;startArrow=none;endArrow=block;exitX=0.87;exitY=1;entryX=0.31;entryY=0;rounded=0;" edge="1" parent="1" source="ZZ10QkGj8NgPV41s8bEq-6" target="ZZ10QkGj8NgPV41s8bEq-8">
          <mxGeometry relative="1" as="geometry">
            <Array as="points">
              <mxPoint x="483" y="497" />
            </Array>
          </mxGeometry>
        </mxCell>
        <mxCell id="ZZ10QkGj8NgPV41s8bEq-25" value="" style="curved=1;startArrow=none;endArrow=block;exitX=0.57;exitY=0;entryX=1;entryY=0.89;rounded=0;" edge="1" parent="1" source="ZZ10QkGj8NgPV41s8bEq-8" target="ZZ10QkGj8NgPV41s8bEq-3">
          <mxGeometry relative="1" as="geometry">
            <Array as="points">
              <mxPoint x="563" y="497" />
              <mxPoint x="563" y="278" />
            </Array>
          </mxGeometry>
        </mxCell>
        <mxCell id="ZZ10QkGj8NgPV41s8bEq-26" value="" style="curved=1;startArrow=none;endArrow=block;exitX=0.29;exitY=1;entryX=0.5;entryY=0;rounded=0;" edge="1" parent="1" source="ZZ10QkGj8NgPV41s8bEq-7" target="ZZ10QkGj8NgPV41s8bEq-9">
          <mxGeometry relative="1" as="geometry">
            <Array as="points">
              <mxPoint x="258" y="613" />
            </Array>
          </mxGeometry>
        </mxCell>
        <mxCell id="ZZ10QkGj8NgPV41s8bEq-27" value="Yes" style="curved=1;startArrow=none;endArrow=block;exitX=0.23;exitY=1;entryX=0.5;entryY=0.01;rounded=0;" edge="1" parent="1" source="ZZ10QkGj8NgPV41s8bEq-9" target="ZZ10QkGj8NgPV41s8bEq-10">
          <mxGeometry relative="1" as="geometry">
            <Array as="points">
              <mxPoint x="201" y="820" />
            </Array>
          </mxGeometry>
        </mxCell>
        <mxCell id="ZZ10QkGj8NgPV41s8bEq-28" value="" style="curved=1;startArrow=none;endArrow=block;exitX=0.5;exitY=1.01;entryX=0.5;entryY=0.01;rounded=0;" edge="1" parent="1" source="ZZ10QkGj8NgPV41s8bEq-10" target="ZZ10QkGj8NgPV41s8bEq-11">
          <mxGeometry relative="1" as="geometry">
            <Array as="points" />
          </mxGeometry>
        </mxCell>
        <mxCell id="ZZ10QkGj8NgPV41s8bEq-29" value="" style="curved=1;startArrow=none;endArrow=block;exitX=0.5;exitY=1.01;entryX=0.5;entryY=0.01;rounded=0;" edge="1" parent="1" source="ZZ10QkGj8NgPV41s8bEq-11" target="ZZ10QkGj8NgPV41s8bEq-12">
          <mxGeometry relative="1" as="geometry">
            <Array as="points" />
          </mxGeometry>
        </mxCell>
        <mxCell id="ZZ10QkGj8NgPV41s8bEq-30" value="" style="curved=1;startArrow=none;endArrow=block;exitX=0.5;exitY=1.01;entryX=0.3;entryY=0.01;rounded=0;" edge="1" parent="1" source="ZZ10QkGj8NgPV41s8bEq-12" target="ZZ10QkGj8NgPV41s8bEq-13">
          <mxGeometry relative="1" as="geometry">
            <Array as="points">
              <mxPoint x="201" y="1143" />
            </Array>
          </mxGeometry>
        </mxCell>
        <mxCell id="ZZ10QkGj8NgPV41s8bEq-31" value="No" style="curved=1;startArrow=none;endArrow=block;exitX=0.77;exitY=1;entryX=0.7;entryY=0.01;rounded=0;" edge="1" parent="1" source="ZZ10QkGj8NgPV41s8bEq-9" target="ZZ10QkGj8NgPV41s8bEq-13">
          <mxGeometry relative="1" as="geometry">
            <Array as="points">
              <mxPoint x="316" y="820" />
              <mxPoint x="316" y="1143" />
            </Array>
          </mxGeometry>
        </mxCell>
        <mxCell id="ZZ10QkGj8NgPV41s8bEq-32" value="" style="curved=1;startArrow=none;endArrow=block;exitX=0.5;exitY=1.01;entryX=0.27;entryY=0;rounded=0;" edge="1" parent="1" source="ZZ10QkGj8NgPV41s8bEq-13" target="ZZ10QkGj8NgPV41s8bEq-14">
          <mxGeometry relative="1" as="geometry">
            <Array as="points">
              <mxPoint x="258" y="1247" />
            </Array>
          </mxGeometry>
        </mxCell>
        <mxCell id="ZZ10QkGj8NgPV41s8bEq-33" value="Yes" style="curved=1;startArrow=none;endArrow=block;exitX=0.27;exitY=1;entryX=0.5;entryY=0.01;rounded=0;" edge="1" parent="1" source="ZZ10QkGj8NgPV41s8bEq-14" target="ZZ10QkGj8NgPV41s8bEq-15">
          <mxGeometry relative="1" as="geometry">
            <Array as="points">
              <mxPoint x="253" y="1497" />
            </Array>
          </mxGeometry>
        </mxCell>
        <mxCell id="ZZ10QkGj8NgPV41s8bEq-34" value="" style="curved=1;startArrow=none;endArrow=block;exitX=0.5;exitY=1.01;entryX=0.31;entryY=0.01;rounded=0;" edge="1" parent="1" source="ZZ10QkGj8NgPV41s8bEq-15" target="ZZ10QkGj8NgPV41s8bEq-16">
          <mxGeometry relative="1" as="geometry">
            <Array as="points">
              <mxPoint x="253" y="1612" />
            </Array>
          </mxGeometry>
        </mxCell>
        <mxCell id="ZZ10QkGj8NgPV41s8bEq-35" value="No" style="curved=1;startArrow=none;endArrow=block;exitX=0.73;exitY=1;entryX=0.68;entryY=0.01;rounded=0;" edge="1" parent="1" source="ZZ10QkGj8NgPV41s8bEq-14" target="ZZ10QkGj8NgPV41s8bEq-16">
          <mxGeometry relative="1" as="geometry">
            <Array as="points">
              <mxPoint x="373" y="1497" />
              <mxPoint x="373" y="1612" />
            </Array>
          </mxGeometry>
        </mxCell>
        <mxCell id="ZZ10QkGj8NgPV41s8bEq-36" value="" style="curved=1;startArrow=none;endArrow=block;exitX=0.5;exitY=1.01;entryX=0.5;entryY=0.01;rounded=0;" edge="1" parent="1" source="ZZ10QkGj8NgPV41s8bEq-16" target="ZZ10QkGj8NgPV41s8bEq-17">
          <mxGeometry relative="1" as="geometry">
            <Array as="points" />
          </mxGeometry>
        </mxCell>
        <mxCell id="ZZ10QkGj8NgPV41s8bEq-37" value="" style="curved=1;startArrow=none;endArrow=block;exitX=0.78;exitY=1;entryX=0.81;entryY=0;rounded=0;" edge="1" parent="1" source="ZZ10QkGj8NgPV41s8bEq-7" target="ZZ10QkGj8NgPV41s8bEq-14">
          <mxGeometry relative="1" as="geometry">
            <Array as="points">
              <mxPoint x="387" y="613" />
              <mxPoint x="387" y="1247" />
            </Array>
          </mxGeometry>
        </mxCell>
      </root>
    </mxGraphModel>
  </diagram>
</mxfile>
